<?xml version="1.0" encoding="utf-8"?>
<!-- Generator: Adobe Illustrator 15.1.0, SVG Export Plug-In . SVG Version: 6.00 Build 0)  -->
<!DOCTYPE svg PUBLIC "-//W3C//DTD SVG 1.1//EN" "http://www.w3.org/Graphics/SVG/1.1/DTD/svg11.dtd">
<svg version="1.1" id="Layer_1" xmlns="http://www.w3.org/2000/svg" xmlns:xlink="http://www.w3.org/1999/xlink" x="0px" y="0px"
	 width="1154px" height="910px" viewBox="0 0 1154 910" enable-background="new 0 0 1154 910" xml:space="preserve">
<path fill="#CCCCCC" d="M1154,905c0,2.762-2.238,5-5,5H5c-2.762,0-5-2.238-5-5V5c0-2.762,2.238-5,5-5h1144c2.762,0,5,2.238,5,5V905z
	"/>
<path fill="#F8F8F8" d="M1145,896c0,2.762-2.238,5-5,5H13c-2.761,0-5-2.238-5-5V90c0-2.762,2.239-5,5-5h1127c2.762,0,5,2.238,5,5
	V896z"/>
<path fill="#E8E8E8" d="M1145,90c0,2.762-2.238,5-5,5H13c-2.761,0-5-2.238-5-5V54c0-2.762,2.239-5,5-5h1127c2.762,0,5,2.238,5,5V90z
	"/>
<rect x="8" y="85" fill="#F8F8F8" width="1137" height="26"/>
<path fill="#E8E8E8" d="M211,61c0,2.762-2.239,5-5,5H42c-2.761,0-5-2.238-5-5l12-35c0-2.762,2.239-5,5-5h140c2.761,0,5,2.238,5,5
	L211,61z"/>
</svg>
