<?xml version="1.0" encoding="utf-8"?>
<!-- Generator: Adobe Illustrator 15.1.0, SVG Export Plug-In . SVG Version: 6.00 Build 0)  -->
<!DOCTYPE svg PUBLIC "-//W3C//DTD SVG 1.1//EN" "http://www.w3.org/Graphics/SVG/1.1/DTD/svg11.dtd">
<svg version="1.1" id="Layer_1" xmlns="http://www.w3.org/2000/svg" xmlns:xlink="http://www.w3.org/1999/xlink" x="0px" y="0px"
	 width="140.843px" height="41.527px" viewBox="0 0 140.843 41.527" enable-background="new 0 0 140.843 41.527"
	 xml:space="preserve">
<g>
	<g>
		<path fill="#303030" d="M8.453,30.06l1.29-14.743h2.73c0.274,0,0.498,0.062,0.674,0.185c0.173,0.123,0.287,0.308,0.342,0.554
			l0.172,0.797c0.269-0.257,0.545-0.491,0.828-0.704c0.285-0.214,0.588-0.399,0.91-0.554c0.32-0.157,0.663-0.28,1.027-0.371
			c0.363-0.089,0.758-0.136,1.185-0.136c0.891,0,1.608,0.23,2.151,0.689c0.541,0.461,0.932,1.075,1.167,1.842
			c0.286-0.456,0.622-0.844,1.005-1.167c0.384-0.322,0.791-0.583,1.221-0.781c0.43-0.199,0.879-0.347,1.347-0.441
			c0.468-0.095,0.929-0.143,1.384-0.143c0.844,0,1.582,0.126,2.214,0.377c0.632,0.252,1.147,0.616,1.546,1.096
			c0.399,0.478,0.682,1.065,0.848,1.763c0.168,0.696,0.212,1.486,0.135,2.367l-0.82,9.369h-4.406l0.818-9.369
			c0.135-1.526-0.453-2.29-1.761-2.29c-0.597,0-1.11,0.197-1.538,0.59c-0.428,0.394-0.674,0.96-0.738,1.699l-0.82,9.369h-4.406
			l0.819-9.369c0.074-0.844-0.04-1.436-0.343-1.776c-0.301-0.343-0.775-0.513-1.42-0.513c-0.396,0-0.781,0.09-1.153,0.271
			c-0.371,0.18-0.727,0.422-1.065,0.726L12.86,30.06H8.453z"/>
		<path fill="#303030" d="M39.393,15.088c1.118,0,2.122,0.176,3.011,0.527s1.635,0.853,2.236,1.507
			c0.602,0.654,1.043,1.447,1.326,2.381c0.283,0.935,0.374,1.984,0.271,3.149c-0.103,1.176-0.377,2.235-0.824,3.177
			c-0.448,0.944-1.029,1.745-1.746,2.404s-1.551,1.166-2.5,1.521c-0.951,0.356-1.986,0.533-3.104,0.533
			c-1.129,0-2.139-0.177-3.031-0.533c-0.895-0.354-1.646-0.861-2.256-1.521c-0.611-0.659-1.058-1.46-1.34-2.404
			c-0.283-0.941-0.372-2.001-0.27-3.177c0.103-1.166,0.377-2.215,0.823-3.149c0.446-0.934,1.032-1.727,1.758-2.381
			c0.726-0.655,1.565-1.157,2.521-1.507S38.265,15.088,39.393,15.088z M38.349,27.018c1.015,0,1.792-0.358,2.334-1.074
			c0.541-0.715,0.875-1.804,1.003-3.262c0.128-1.459-0.017-2.546-0.433-3.256c-0.418-0.712-1.133-1.067-2.146-1.067
			c-1.043,0-1.837,0.355-2.383,1.067c-0.545,0.71-0.882,1.797-1.01,3.256c-0.127,1.458,0.02,2.547,0.439,3.262
			C36.575,26.659,37.307,27.018,38.349,27.018z"/>
		<path fill="#303030" d="M56.765,30.06c-0.418,0-0.727-0.057-0.931-0.17c-0.203-0.114-0.36-0.351-0.471-0.711l-0.242-0.811
			c-0.397,0.313-0.776,0.587-1.138,0.825c-0.362,0.236-0.734,0.438-1.113,0.603c-0.379,0.167-0.778,0.29-1.197,0.371
			c-0.42,0.08-0.881,0.12-1.383,0.12c-0.673,0-1.277-0.088-1.811-0.264c-0.535-0.176-0.979-0.436-1.333-0.777
			s-0.613-0.768-0.776-1.277c-0.165-0.508-0.218-1.095-0.159-1.761c0.046-0.523,0.226-1.061,0.538-1.612
			c0.314-0.551,0.818-1.053,1.512-1.504c0.693-0.452,1.608-0.83,2.744-1.135c1.135-0.304,2.547-0.456,4.233-0.456l0.056-0.631
			c0.076-0.871-0.047-1.499-0.368-1.887c-0.321-0.388-0.81-0.582-1.464-0.582c-0.521,0-0.952,0.058-1.294,0.17
			c-0.342,0.114-0.649,0.242-0.923,0.385c-0.272,0.141-0.537,0.27-0.793,0.383c-0.258,0.114-0.556,0.171-0.897,0.171
			c-0.303,0-0.555-0.074-0.755-0.221c-0.201-0.146-0.354-0.329-0.457-0.547l-0.676-1.379c0.96-0.787,2-1.373,3.118-1.757
			c1.118-0.383,2.299-0.575,3.54-0.575c0.892,0,1.683,0.145,2.373,0.433c0.689,0.29,1.262,0.692,1.714,1.209s0.779,1.13,0.983,1.841
			c0.203,0.711,0.268,1.488,0.193,2.333l-0.806,9.212H56.765z M51.938,27.372c0.568,0,1.075-0.099,1.52-0.297
			c0.443-0.2,0.902-0.522,1.377-0.968l0.178-2.02c-0.882,0-1.612,0.059-2.191,0.173c-0.578,0.114-1.041,0.258-1.388,0.431
			c-0.347,0.172-0.594,0.368-0.741,0.588s-0.231,0.459-0.254,0.717c-0.045,0.507,0.061,0.863,0.318,1.068
			C51.014,27.27,51.407,27.372,51.938,27.372z"/>
		<path fill="#303030" d="M60.079,34.737l1.699-19.421h2.73c0.275,0,0.5,0.062,0.674,0.185s0.287,0.308,0.342,0.554l0.232,1.081
			c0.313-0.313,0.643-0.598,0.992-0.854c0.35-0.256,0.719-0.476,1.109-0.662c0.391-0.184,0.806-0.328,1.246-0.433
			c0.441-0.104,0.917-0.157,1.43-0.157c0.768,0,1.463,0.171,2.087,0.512c0.624,0.341,1.146,0.833,1.563,1.478
			c0.416,0.646,0.72,1.434,0.908,2.367c0.188,0.934,0.23,1.994,0.127,3.178c-0.098,1.108-0.34,2.133-0.73,3.071
			s-0.893,1.754-1.508,2.445s-1.326,1.231-2.133,1.621c-0.807,0.389-1.678,0.582-2.616,0.582c-0.768,0-1.403-0.109-1.905-0.327
			c-0.503-0.218-0.951-0.511-1.345-0.882l-0.495,5.659H60.079z M68.703,18.401c-0.322,0-0.616,0.031-0.882,0.093
			c-0.268,0.061-0.516,0.148-0.748,0.263c-0.233,0.114-0.453,0.258-0.657,0.434c-0.205,0.175-0.412,0.376-0.621,0.604l-0.548,6.256
			c0.299,0.369,0.637,0.627,1.013,0.774s0.777,0.221,1.204,0.221c0.406,0,0.789-0.081,1.143-0.242
			c0.356-0.16,0.675-0.419,0.957-0.774c0.283-0.355,0.52-0.817,0.711-1.386c0.193-0.569,0.324-1.261,0.396-2.076
			c0.068-0.776,0.068-1.431,0-1.963c-0.066-0.53-0.188-0.958-0.363-1.286c-0.176-0.327-0.398-0.562-0.671-0.704
			C69.365,18.473,69.054,18.401,68.703,18.401z"/>
		<path fill="#303030" d="M75.093,34.737l1.699-19.421h2.73c0.275,0,0.5,0.062,0.674,0.185s0.287,0.308,0.342,0.554l0.232,1.081
			c0.313-0.313,0.643-0.598,0.992-0.854c0.35-0.256,0.719-0.476,1.11-0.662c0.39-0.184,0.806-0.328,1.245-0.433
			c0.441-0.104,0.917-0.157,1.43-0.157c0.768,0,1.463,0.171,2.087,0.512c0.624,0.341,1.146,0.833,1.563,1.478
			c0.417,0.646,0.72,1.434,0.908,2.367c0.188,0.934,0.23,1.994,0.127,3.178c-0.098,1.108-0.34,2.133-0.73,3.071
			s-0.893,1.754-1.508,2.445s-1.326,1.231-2.133,1.621c-0.807,0.389-1.678,0.582-2.616,0.582c-0.768,0-1.403-0.109-1.905-0.327
			c-0.503-0.218-0.951-0.511-1.345-0.882l-0.495,5.659H75.093z M83.718,18.401c-0.323,0-0.617,0.031-0.883,0.093
			c-0.268,0.061-0.516,0.148-0.748,0.263c-0.233,0.114-0.453,0.258-0.657,0.434c-0.204,0.175-0.412,0.376-0.621,0.604l-0.548,6.256
			c0.299,0.369,0.637,0.627,1.013,0.774s0.777,0.221,1.204,0.221c0.407,0,0.789-0.081,1.145-0.242
			c0.354-0.16,0.673-0.419,0.955-0.774c0.283-0.355,0.52-0.817,0.712-1.386c0.192-0.569,0.323-1.261,0.396-2.076
			c0.068-0.776,0.068-1.431,0-1.963c-0.066-0.53-0.188-0.958-0.363-1.286c-0.176-0.327-0.398-0.562-0.67-0.704
			C84.379,18.473,84.067,18.401,83.718,18.401z"/>
		<path fill="#3F8FD8" d="M97.221,11.278c-0.03,0.35-0.13,0.68-0.299,0.988c-0.169,0.308-0.388,0.578-0.654,0.81
			c-0.267,0.232-0.569,0.417-0.909,0.554c-0.338,0.138-0.693,0.207-1.063,0.207c-0.36,0-0.69-0.068-0.991-0.207
			c-0.301-0.137-0.562-0.322-0.783-0.554c-0.222-0.232-0.388-0.502-0.498-0.81c-0.111-0.308-0.15-0.638-0.12-0.988
			c0.031-0.36,0.13-0.696,0.295-1.01c0.164-0.313,0.378-0.587,0.641-0.824c0.263-0.236,0.557-0.422,0.881-0.556
			c0.324-0.131,0.666-0.198,1.026-0.198c0.37,0,0.712,0.067,1.028,0.198c0.314,0.133,0.586,0.319,0.812,0.556
			c0.226,0.237,0.396,0.512,0.511,0.824C97.211,10.583,97.253,10.918,97.221,11.278z"/>
		<path fill="#303030" d="M96.03,15.629c-0.624,0.254-1.277,0.38-1.959,0.38c-0.664,0-1.273-0.126-1.829-0.38
			c-0.108-0.05-0.202,0.102-0.306,0.045L90.659,30.5h4.406l1.276-14.807C96.237,15.743,96.141,15.585,96.03,15.629z"/>
	</g>
	<rect x="100.343" y="2.5" fill="#3F8FD8" width="36" height="36"/>
	<path opacity="0.75" fill="#FFFFFF" d="M130.288,11.94c-0.03,0.35-0.13,0.68-0.299,0.988c-0.17,0.307-0.388,0.578-0.654,0.81
		c-0.266,0.233-0.569,0.417-0.909,0.554c-0.338,0.138-0.692,0.207-1.063,0.207c-0.359,0-0.689-0.069-0.99-0.207
		c-0.301-0.137-0.562-0.321-0.783-0.554c-0.222-0.232-0.389-0.502-0.498-0.81c-0.111-0.308-0.15-0.638-0.119-0.988
		c0.031-0.36,0.129-0.696,0.293-1.01c0.166-0.313,0.379-0.587,0.643-0.824c0.262-0.236,0.556-0.422,0.88-0.555
		c0.324-0.132,0.666-0.198,1.026-0.198c0.369,0,0.713,0.066,1.027,0.198c0.315,0.133,0.586,0.319,0.813,0.555
		c0.225,0.237,0.396,0.512,0.511,0.824C130.278,11.244,130.319,11.58,130.288,11.94z"/>
	<path opacity="0.75" fill="#FFFFFF" d="M129.098,15.629c-0.624,0.254-1.277,0.38-1.959,0.38c-0.665,0-1.272-0.126-1.829-0.38
		c-0.109-0.05-0.202-0.104-0.305-0.16l-1.279,14.621h4.407l1.276-14.603C129.304,15.537,129.208,15.585,129.098,15.629z"/>
	<g opacity="0.75">
		<g>
			<path fill="#FFFFFF" d="M107.569,30.035l1.906-21.781h4.51l-0.726,8.293c0.611-0.552,1.289-0.996,2.031-1.331
				c0.742-0.335,1.592-0.502,2.553-0.502c0.785,0,1.498,0.169,2.138,0.509c0.639,0.339,1.173,0.836,1.601,1.491
				c0.427,0.655,0.738,1.458,0.931,2.408c0.193,0.951,0.237,2.032,0.131,3.245c-0.099,1.135-0.349,2.183-0.749,3.143
				c-0.398,0.96-0.913,1.794-1.542,2.502c-0.629,0.709-1.357,1.261-2.183,1.659c-0.826,0.397-1.718,0.597-2.678,0.597
				c-0.446,0-0.843-0.044-1.189-0.131c-0.346-0.088-0.66-0.211-0.942-0.371c-0.282-0.16-0.537-0.352-0.764-0.574
				c-0.228-0.224-0.446-0.466-0.657-0.728l-0.226,0.756c-0.096,0.311-0.238,0.524-0.427,0.641c-0.189,0.116-0.43,0.174-0.721,0.174
				H107.569z M115.976,18.104c-0.33,0-0.632,0.032-0.904,0.096c-0.272,0.062-0.527,0.152-0.765,0.268
				c-0.239,0.117-0.462,0.265-0.673,0.444c-0.209,0.18-0.421,0.386-0.636,0.619l-0.56,6.402c0.307,0.378,0.651,0.643,1.037,0.793
				c0.384,0.15,0.795,0.226,1.231,0.226c0.417,0,0.808-0.082,1.171-0.247c0.364-0.165,0.69-0.43,0.979-0.793
				c0.289-0.364,0.532-0.837,0.729-1.419c0.196-0.582,0.331-1.29,0.403-2.125c0.07-0.795,0.069-1.464,0.001-2.008
				c-0.069-0.543-0.192-0.982-0.372-1.316s-0.408-0.575-0.686-0.72C116.653,18.178,116.334,18.104,115.976,18.104z"/>
		</g>
	</g>
</g>
</svg>
